<svg width="23" height="13" viewBox="0 0 23 13" fill="none" xmlns="http://www.w3.org/2000/svg">
<path id="Vector 2" d="M1.09528 0.551514C0.824199 0.498887 0.561782 0.67598 0.509157 0.947061C0.456531 1.21814 0.633622 1.48056 0.904705 1.53319L1.09528 0.551514ZM0.904705 1.53319C4.60096 2.25076 9.19735 3.91345 13.1852 5.89953C15.1773 6.89166 17.0065 7.95905 18.4886 9.02142C19.9801 10.0905 21.0826 11.1283 21.6629 12.0514L22.5095 11.5192C21.8259 10.4317 20.5983 9.30331 19.0712 8.20866C17.5347 7.10729 15.6568 6.01333 13.631 5.0044C9.58304 2.98838 4.90025 1.29019 1.09528 0.551514L0.904705 1.53319Z" fill="#637381"/>
</svg>
