<svg width="19" height="13" viewBox="0 0 19 13" fill="none" xmlns="http://www.w3.org/2000/svg">
<path id="Vector 3" d="M7.81573 5.82759L8.37186 5.64221L8.10026 4.82741L7.44045 5.37725L7.81573 5.82759ZM8.98815 9.34483L8.43202 9.5302L8.72072 10.3963L9.38813 9.77338L8.98815 9.34483ZM18.3671 1.15813C18.3783 0.834573 18.125 0.56323 17.8015 0.552073L12.5287 0.370255C12.2052 0.359098 11.9338 0.612351 11.9227 0.935912C11.9115 1.25947 12.1648 1.53082 12.4883 1.54197L17.1752 1.70359L17.0136 6.39046C17.0024 6.71402 17.2557 6.98536 17.5792 6.99652C17.9028 7.00768 18.1741 6.75442 18.1853 6.43086L18.3671 1.15813ZM1.15653 12.14L8.19101 6.27792L7.44045 5.37725L0.40597 11.2393L1.15653 12.14ZM7.25961 6.01296L8.43202 9.5302L9.54427 9.15945L8.37186 5.64221L7.25961 6.01296ZM9.38813 9.77338L18.1812 1.56648L17.3813 0.709382L8.58817 8.91628L9.38813 9.77338Z" fill="#1939B7"/>
</svg>
